<svg width="96" height="49" viewBox="0 0 96 49" fill="none" xmlns="http://www.w3.org/2000/svg">
<path d="M20.4624 39.7879C-17.0789 27.7594 6.83981 -8.66025 65.9239 2.03176L56.4703 1.65382C8.70537 1.93485 -9.08166 24.6558 20.4624 39.7879Z" fill="#753233"/>
<path d="M94.633 24.0303C94.633 30.3806 89.5596 36.2469 81.0897 40.553C72.6451 44.8463 60.9467 47.5151 48.0001 47.5151C35.0535 47.5151 23.3551 44.8463 14.9104 40.553C6.4406 36.2469 1.36719 30.3806 1.36719 24.0303C1.36719 17.6799 6.4406 11.8135 14.9104 7.50753C23.3551 3.21423 35.0535 0.54541 48.0001 0.54541C60.9467 0.54541 72.6451 3.21423 81.0897 7.50753C89.5596 11.8135 94.633 17.6799 94.633 24.0303Z" stroke="#753233"/>
<path d="M75.8414 8.27271C113.383 20.3012 89.4639 56.7209 30.3799 46.0288L39.8335 46.4069C87.5983 46.1257 105.385 23.4048 75.8414 8.27271Z" fill="#753233"/>
<path d="M23.4287 37.0195L23.611 36.065C25.2819 36.065 26.2844 35.7619 26.6186 35.1559L30.4464 12.2922C30.2642 11.6862 29.3528 11.3831 27.7123 11.3831L27.8945 10.4286H38.1933C41.6869 10.4286 44.2844 11.0195 45.9857 12.2013C47.7173 13.3831 48.5831 14.7922 48.5831 16.4286C48.5831 18.2771 47.93 19.8983 46.6236 21.2922C45.3173 22.6862 43.5705 23.6862 41.3831 24.2922L45.6211 35.1104C45.8338 35.7468 46.7907 36.065 48.492 36.065L48.3097 37.0195H46.3502C44.2236 37.0195 42.8566 36.8983 42.249 36.6559C41.6717 36.4134 41.1553 35.7468 40.6996 34.6559L36.8262 24.9286H32.5426L30.811 35.1559C30.9933 35.7619 31.9047 36.065 33.5452 36.065L33.3629 37.0195H23.4287ZM34.6844 11.974L32.7705 23.3831H36.5528C39.135 23.3831 41.0338 22.7922 42.249 21.6104C43.4642 20.3983 44.0717 18.5043 44.0717 15.9286C44.0717 14.6559 43.6009 13.6862 42.6591 13.0195C41.7477 12.3225 40.168 11.974 37.9199 11.974H34.6844ZM49.9961 37.0195L50.1784 36.065C51.8493 36.065 52.8518 35.7619 53.186 35.1559L57.0138 12.2922C56.8315 11.6862 55.9202 11.3831 54.2796 11.3831L54.4619 10.4286H64.3961L64.2138 11.3831C62.5429 11.3831 61.5404 11.6862 61.2062 12.2922L57.3328 35.474H67.7227C68.5126 35.171 69.348 34.2165 70.229 32.6104H71.1404L69.3176 37.0195H49.9961Z" fill="#393738"/>
</svg>
